<svg width="512" height="512" viewBox="0 0 300 300" role="img" xmlns="http://www.w3.org/2000/svg">
  <title>BRAW Gyro Stabilizer</title>
  <desc>A centered level teal frame with a smaller tilted orange frame and corner shake waves, on a dark rounded square.</desc>
  <rect x="0" y="0" width="300" height="300" rx="66" fill="#16212e"/>
  <g transform="translate(150 150) scale(1.5) translate(-150 -150)">
    <g transform="rotate(-15 134 136)">
      <g fill="none" stroke="#ff9a52" stroke-width="4" stroke-linecap="round">
        <path d="M0 0 q5 4 0 8 q-5 4 0 8" transform="translate(77 100) rotate(135)"/>
        <path d="M0 0 q5 4 0 8 q-5 4 0 8" transform="translate(191 100) rotate(-135)"/>
        <path d="M0 0 q5 4 0 8 q-5 4 0 8" transform="translate(77 172) rotate(45)"/>
      </g>
      <rect x="84" y="107" width="100" height="58" rx="8" fill="none" stroke="#ff9a52" stroke-width="6.5"/>
    </g>
    <rect x="89" y="114" width="122" height="72" rx="9" fill="none" stroke="#35d0b6" stroke-width="10"/>
  </g>
</svg>
